<svg xmlns="http://www.w3.org/2000/svg" viewBox="0 0 512 512">
  <rect width="512" height="512" fill="#E31616"/>
  <path transform="translate(120.39, 461.00) scale(0.615, -0.569444)" fill="#ffffff" d="M34 0Q19 0 19 11Q19 20 32 23L55 27Q76 31 82.5 38.0Q89 45 89 66V654Q89 675 82.5 682.0Q76 689 55 693L32 697Q19 700 19 709Q19 720 34 720H370Q393 720 395 697L403 531Q405 514 390 514Q378 514 376 527L370 564Q359 632 325.0 663.5Q291 695 231 695Q191 695 175.5 683.5Q160 672 160 643V402Q160 388 174 388H224Q268 388 278 435L288 485Q292 500 305 498Q316 496 316 481V256Q316 241 305 239Q292 237 288 252L278 301Q271 336 258.5 347.0Q246 358 223 358H174Q160 358 160 344V93Q160 57 178.5 41.0Q197 25 246 25Q296 25 331.5 50.5Q367 76 381 146L393 205Q396 218 408 218Q422 218 420 201L410 23Q408 0 385 0Z"/>
</svg>
